<svg width="230" height="230" viewBox="0 0 230 230" fill="none" xmlns="http://www.w3.org/2000/svg">
<path d="M26.7515 204.596H205.943V2.5H2.5V204.596H26.7515ZM26.7515 204.596V25.4042H227.5V227.5H26.7515V204.596Z" stroke="#222222" stroke-width="5"/>
<path d="M75.0024 56.3587H60.832V178.259H149.228C205.234 166.136 176.894 120.34 156.65 116.972L143.155 114.278H110.091V59.7263H141.131C165.962 61.3427 166.097 106.87 143.83 113.605L154.626 115.625C194.438 96.7677 174.869 54.3385 136.407 56.3587H95.9204V154.373H111.44V118.992H143.83C173.52 121.686 174.195 169.503 143.83 174.891H75.6771L75.0024 56.3587Z" fill="#292323" stroke="#292323"/>
</svg>
