<svg width="64" height="64" viewBox="0 0 64 64" fill="none" xmlns="http://www.w3.org/2000/svg">
<path d="M8.46707 55.8922H56.2515V2H2V55.8922H8.46707ZM8.46707 55.8922V8.10778H62V62H8.46707V55.8922Z" stroke="#292323" stroke-width="3"/>
<path d="M20.9748 17.0183H17V49H41.795C57.5048 45.8195 49.5553 33.8043 43.877 32.9208L40.0915 32.214H30.8171V17.9018H39.5237C46.489 18.3259 46.5269 30.2704 40.2808 32.0373L43.3092 32.5674C54.4764 27.62 48.9875 16.4883 38.1988 17.0183H26.8423V42.7333H31.1956V33.4509H40.2808C48.6089 34.1576 48.7982 46.7029 40.2808 48.1165H21.164L20.9748 17.0183Z" fill="#292323" stroke="#292323"/>
</svg>
