<svg width="282" height="280" viewBox="0 0 282 280" fill="none" xmlns="http://www.w3.org/2000/svg">
<path fill-rule="evenodd" clip-rule="evenodd" d="M23.6504 66.5789C68.4439 -5.51076 191.491 -26.8404 250.856 55.509C296.405 109.293 284.046 196.177 238.983 237.217C176.11 297.696 97.5865 273.396 91.3802 263.676C84.7171 255.934 81.9918 258.47 79.6585 260.641C79.0625 261.196 78.4921 261.727 77.8882 262.056C70.1168 268.536 62.957 272.136 60.3485 273.126C36.8724 281.496 21.7614 278.256 22.0312 259.896C22.2471 245.208 16.1847 221.917 13.1266 212.107C13.0304 211.753 12.9309 211.387 12.8282 211.01C6.48129 187.7 -11.6675 121.047 23.6504 66.5789ZM74.363 138.128C70.797 164.827 79.2375 206.437 86.2534 206.437C90.5708 206.869 94.7084 203.917 96.2374 202.387C96.9198 201.753 97.5619 201.146 98.1696 200.57C102.945 196.05 105.594 193.543 108.92 196.177C121.872 206.437 162.888 216.157 193.92 181.598C222.793 150.548 214.158 91.4186 162.079 73.0588C104.598 60.619 79.6757 98.3507 74.363 138.128Z" fill="white" stroke="#252525" stroke-width="5"/>
</svg>
