<svg width="38" height="38" viewBox="0 0 38 38" fill="none" xmlns="http://www.w3.org/2000/svg">
<path d="M1.57309 5.39211C2.90292 2.84966 5.61263 1.36 6.80126 0.932974L6.96211 0.859065C9.47164 -0.146087 10.9927 1.19576 11.4396 1.99233C11.9222 2.60823 13.6381 7.33836 13.6381 9.25997C13.6381 10.8927 11.091 11.8468 8.94614 12.6105C7.57341 12.7879 7.83794 13.8505 8.1418 14.3596C8.44209 15.2663 9.64323 17.858 10.8229 19.8289C10.9731 20.1048 12.9678 23.746 18.1424 28.55C18.936 29.2596 19.5097 28.9196 19.8583 28.4515C20.3409 27.8849 21.5527 26.6235 22.5394 26.1111C23.7727 25.4705 24.4162 25.6676 25.0596 25.7662C25.7031 25.8647 28.2233 27.5892 28.8936 28.1066C29.5639 28.6239 32.5399 30.8166 32.3255 32.3686C32.111 33.9207 31.4943 34.2902 30.1537 35.522C29.0813 36.5075 26.7398 37.1809 25.7031 37.3944C24.8094 37.5997 22.2069 37.6457 18.9467 36.1872C14.8714 34.3641 13.1019 32.7382 9.40193 29.1906C5.9701 25.4212 5.29982 23.9431 3.44985 20.5187C1.59989 17.0942 0.768752 12.438 0.71513 11.9946C0.661508 11.5511 -0.0892043 8.57016 1.57309 5.39211Z" fill="white"/>
<path d="M21.172 1.89378C21.8155 0.849212 23.4956 1.19576 24.2553 1.49961L24.6575 1.59815C25.3224 1.75582 26.7577 2.33723 27.3922 2.60823C30.5046 3.90374 32.4029 5.90258 33.6894 7.25721L33.7196 7.28909C35.0066 8.64407 36.9102 12.3641 37.2855 14.4089C37.7681 16.5276 37.2855 20.6172 37.2855 20.8882C37.2855 21.1592 36.6957 22.5635 35.087 22.3171C33.8001 22.12 33.5677 21.036 33.6124 20.5187C33.8537 19.9028 34.0146 17.9811 33.9073 16.0595C33.8001 14.1379 32.2986 10.9845 30.4755 8.89043C28.6523 6.79636 25.6495 5.51529 25.4886 5.41674C25.3277 5.3182 23.5046 4.67766 22.6198 4.55448C21.7351 4.4313 21.3329 4.01249 21.2525 3.91394C21.172 3.8154 20.3677 3.1995 21.172 1.89378Z" fill="white"/>
<path d="M18.9735 7.88035C19.2738 6.28393 20.4481 6.30364 21.5474 6.4761L22.6198 6.79636C24.5288 7.08165 26.5074 8.54122 27.2581 9.23534C30.7972 12.2902 31.3334 15.8132 31.4139 16.1827C31.4943 16.5523 31.9233 21.1838 30.5559 21.6519C29.1885 22.12 28.6791 21.6273 28.3038 21.4548C27.9284 21.2824 27.5531 20.5187 27.8212 19.4593C28.0357 18.6118 27.9106 17.2831 27.8212 16.7247C27.1509 13.4235 25.3009 12.0685 24.2017 11.2309C23.1024 10.3932 21.4669 9.8266 20.7967 9.70342C20.2604 9.60488 19.9119 9.46527 19.8046 9.40779C19.0968 9.09245 18.9556 8.25811 18.9735 7.88035Z" fill="white"/>
<path d="M17.3112 12.4134C18.2979 10.8367 21.029 12.0192 22.2713 12.8076L22.4321 12.9308C22.6037 13.0563 23.2007 13.5743 23.4778 13.8176C25.2473 15.4436 25.4618 17.858 25.4886 18.6217C25.5154 19.3854 25.3546 21.2577 23.9604 21.3809C22.845 21.4795 22.2087 20.9128 22.03 20.6172C21.6278 20.2477 21.7619 19.6564 21.8423 18.9912C21.9227 18.3261 21.7619 17.587 21.4133 16.8725C21.0648 16.1581 19.9119 15.2958 19.3757 15.1234C18.9467 14.9854 18.3032 14.7538 18.0351 14.6553C16.9198 14.202 17.0878 12.9718 17.3112 12.4134Z" fill="white"/>
<path d="M1.57309 5.39211C2.90292 2.84966 5.61263 1.36 6.80126 0.932974L6.96211 0.859065C9.47164 -0.146087 10.9927 1.19576 11.4396 1.99233C11.9222 2.60823 13.6381 7.33836 13.6381 9.25997C13.6381 10.8927 11.091 11.8468 8.94614 12.6105C7.57341 12.7879 7.83794 13.8505 8.1418 14.3596C8.44209 15.2663 9.64323 17.858 10.8229 19.8289C10.9731 20.1048 12.9678 23.746 18.1424 28.55C18.936 29.2596 19.5097 28.9196 19.8583 28.4515C20.3409 27.8849 21.5527 26.6235 22.5394 26.1111C23.7727 25.4705 24.4162 25.6676 25.0596 25.7662C25.7031 25.8647 28.2233 27.5892 28.8936 28.1066C29.5639 28.6239 32.5399 30.8166 32.3255 32.3686C32.111 33.9207 31.4943 34.2902 30.1537 35.522C29.0813 36.5075 26.7398 37.1809 25.7031 37.3944C24.8094 37.5997 22.2069 37.6457 18.9467 36.1872C14.8714 34.3641 13.1019 32.7382 9.40193 29.1906C5.9701 25.4212 5.29982 23.9431 3.44985 20.5187C1.59989 17.0942 0.768752 12.438 0.71513 11.9946C0.661508 11.5511 -0.0892043 8.57016 1.57309 5.39211Z" stroke="#292323"/>
<path d="M21.172 1.89378C21.8155 0.849212 23.4956 1.19576 24.2553 1.49961L24.6575 1.59815C25.3224 1.75582 26.7577 2.33723 27.3922 2.60823C30.5046 3.90374 32.4029 5.90258 33.6894 7.25721L33.7196 7.28909C35.0066 8.64407 36.9102 12.3641 37.2855 14.4089C37.7681 16.5276 37.2855 20.6172 37.2855 20.8882C37.2855 21.1592 36.6957 22.5635 35.087 22.3171C33.8001 22.12 33.5677 21.036 33.6124 20.5187C33.8537 19.9028 34.0146 17.9811 33.9073 16.0595C33.8001 14.1379 32.2986 10.9845 30.4755 8.89043C28.6523 6.79636 25.6495 5.51529 25.4886 5.41674C25.3277 5.3182 23.5046 4.67766 22.6198 4.55448C21.7351 4.4313 21.3329 4.01249 21.2525 3.91394C21.172 3.8154 20.3677 3.1995 21.172 1.89378Z" stroke="#292323"/>
<path d="M18.9735 7.88035C19.2738 6.28393 20.4481 6.30364 21.5474 6.4761L22.6198 6.79636C24.5288 7.08165 26.5074 8.54122 27.2581 9.23534C30.7972 12.2902 31.3334 15.8132 31.4139 16.1827C31.4943 16.5523 31.9233 21.1838 30.5559 21.6519C29.1885 22.12 28.6791 21.6273 28.3038 21.4548C27.9284 21.2824 27.5531 20.5187 27.8212 19.4593C28.0357 18.6118 27.9106 17.2831 27.8212 16.7247C27.1509 13.4235 25.3009 12.0685 24.2017 11.2309C23.1024 10.3932 21.4669 9.8266 20.7967 9.70342C20.2604 9.60488 19.9119 9.46527 19.8046 9.40779C19.0968 9.09245 18.9556 8.25811 18.9735 7.88035Z" stroke="#292323"/>
<path d="M17.3112 12.4134C18.2979 10.8367 21.029 12.0192 22.2713 12.8076L22.4321 12.9308C22.6037 13.0563 23.2007 13.5743 23.4778 13.8176C25.2473 15.4436 25.4618 17.858 25.4886 18.6217C25.5154 19.3854 25.3546 21.2577 23.9604 21.3809C22.845 21.4795 22.2087 20.9128 22.03 20.6172C21.6278 20.2477 21.7619 19.6564 21.8423 18.9912C21.9227 18.3261 21.7619 17.587 21.4133 16.8725C21.0648 16.1581 19.9119 15.2958 19.3757 15.1234C18.9467 14.9854 18.3032 14.7538 18.0351 14.6553C16.9198 14.202 17.0878 12.9718 17.3112 12.4134Z" stroke="#292323"/>
</svg>
