<svg width="39" height="39" viewBox="0 0 39 39" fill="none" xmlns="http://www.w3.org/2000/svg">
<path d="M36.4707 0.5C36.9073 0.506281 37.3422 0.603149 37.7041 0.865234C38.4563 1.4102 38.6387 2.45193 38.4023 3.85742L38.4014 3.8623L32.5566 36.7949C32.5475 36.898 32.5189 37.0694 32.4531 37.2598C32.3681 37.5058 32.2063 37.8296 31.9004 38.0879C31.235 38.6497 30.1726 38.6973 28.5967 37.8555L28.54 37.8252L28.4922 37.7812L20.7832 30.6416L16.2314 35.8438L16.1982 35.8818L16.1582 35.9121C15.6543 36.2956 15.0133 36.4465 14.4424 36.207C13.8556 35.9607 13.5009 35.3706 13.4395 34.6035L13.4365 34.5664L13.4395 34.5283L13.9824 26.8125L13.9951 26.6377L14.1133 26.5088L31.4131 7.7041C31.3834 7.71689 31.3525 7.73041 31.3203 7.74512L10.5576 22.9561L10.3438 23.1123L10.0947 23.0234L1.87988 20.0967L1.75293 20.0508L1.67285 19.9561C1.68153 19.9656 1.68106 19.9633 1.65625 19.9414C1.63147 19.9195 1.60197 19.8948 1.55859 19.8574C1.47661 19.7867 1.366 19.6901 1.25 19.5742C1.02499 19.3495 0.74226 19.0172 0.59668 18.6035C0.441201 18.1616 0.451786 17.646 0.790039 17.1357C1.10799 16.6563 1.68781 16.2235 2.57227 15.8271L35.0137 0.736328L35.0518 0.71875L35.0918 0.708008C35.5645 0.577514 36.0348 0.493792 36.4707 0.5Z" fill="white" stroke="#292323"/>
</svg>
