<svg width="40" height="40" viewBox="0 0 40 40" fill="none" xmlns="http://www.w3.org/2000/svg">
<path d="M12.6816 2C17.9035 -0.0718388 28.0169 -1.15783 34.2969 6.74316L34.3135 6.76367L34.3311 6.78223C37.8498 10.3662 42.1085 18.1959 37.4463 27.8613L37.4365 27.8818L37.4287 27.9023C36.6159 30.0533 33.6998 33.8484 29.1201 36.2344C24.573 38.6032 18.3944 39.5777 11.0195 36.1357L10.8438 36.0537L10.6582 36.1123L0.794922 39.2246L4.08691 29.6602L4.16895 29.4199L4.02441 29.2119C1.35422 25.37 0.599133 19.7186 1.99316 14.4277C3.3838 9.14982 6.89631 4.29541 12.6816 2ZM19.4297 2.50488C15.505 2.66787 11.2033 4.17194 7.65625 8.37207C0.702093 16.607 3.96581 25.39 6.60352 28.9775L4.65918 34.8447L4.35352 35.7666L5.28223 35.4795L11.1543 33.6631C12.76 34.8334 14.2067 35.4527 15.7812 35.7725C17.4025 36.1017 19.1456 36.1094 21.2793 36.1094H21.3086C25.9281 35.8328 29.2404 34.2624 31.6309 32.0645C34.0069 29.8797 35.4412 27.1029 36.3691 24.4463C39.3659 16.8575 35.6566 8.67212 28.9678 4.65234L28.958 4.64746L28.9492 4.64258L28.543 4.42969C26.4283 3.36738 23.0926 2.35286 19.4297 2.50488ZM19.4717 3.50488C23.1644 3.35164 26.5135 4.4545 28.457 5.5127C34.8024 9.32876 38.2242 17.0269 35.4395 24.0791L35.4316 24.0986C34.5355 26.6704 33.1714 29.2885 30.9531 31.3281C28.7458 33.3577 25.6614 34.8422 21.2637 35.1084C19.1155 35.1083 17.4816 35.0969 15.9805 34.792C14.4964 34.4906 13.1283 33.8994 11.5479 32.7109L11.3438 32.5576L11.0996 32.6328L5.91309 34.2373L7.63477 29.0469L7.71875 28.7939L7.55566 28.583C5.06048 25.3579 1.73937 16.9284 8.4209 9.0166C11.764 5.05814 15.7885 3.65775 19.4717 3.50488ZM14.2734 9.33496C13.9671 9.34081 13.6645 9.37299 13.457 9.4248L13.4355 9.43066L13.416 9.4375C11.3591 10.1435 10.0381 12.1459 10.0381 14.9424V14.9971L10.0498 15.0508C11.6817 22.4097 17.6091 27.6566 23.6074 29.3701C26.1082 30.0845 28.0271 29.5643 29.2744 28.4277C30.5003 27.3105 31.0157 25.6501 30.8271 24.1982L30.793 23.9355L30.5557 23.8164L26.0635 21.5537L26.0225 21.5332L25.9785 21.5205L25.8535 21.4932C25.554 21.4515 25.2034 21.5523 24.8682 21.7725C24.4724 22.0324 24.0517 22.4845 23.6465 23.208C23.3259 23.7804 22.9984 23.9333 22.7793 23.9678C22.5343 24.0063 22.3059 23.9159 22.1816 23.8252L22.165 23.8125L22.1465 23.8018C18.3485 21.4914 16.6098 18.9947 16.2324 18.1211L16.2246 18.1035L16.1377 17.9082C16.0782 17.7593 16.0837 17.7213 16.085 17.7148C16.0873 17.7031 16.1069 17.6306 16.3701 17.3818C16.7125 17.1376 17.0946 16.7494 17.376 16.3633C17.5239 16.1603 17.6592 15.9377 17.7461 15.7188C17.8184 15.5366 17.8911 15.269 17.8145 15C17.594 14 17.2852 12.7334 16.9023 11.6807C16.7114 11.1556 16.4943 10.6614 16.249 10.2744C16.0191 9.91168 15.6952 9.5315 15.249 9.42383C14.9382 9.34882 14.5817 9.32908 14.2734 9.33496ZM14.292 10.335C14.5549 10.3299 14.8183 10.3491 15.0146 10.3965C15.0585 10.4073 15.1998 10.4879 15.4043 10.8105C15.5936 11.1093 15.7815 11.5266 15.9619 12.0225C16.3217 13.0117 16.6203 14.2268 16.8389 15.2188L16.8457 15.251C16.8432 15.2656 16.8373 15.2979 16.8164 15.3506C16.7714 15.4638 16.6869 15.6104 16.5674 15.7744C16.326 16.1055 16.0023 16.4249 15.7617 16.5889L15.7305 16.6104L15.7021 16.6377C15.4399 16.8835 15.1755 17.156 15.1035 17.5205C15.0305 17.8903 15.1787 18.234 15.3223 18.5342C15.7818 19.5815 17.4839 21.9536 20.9141 24.2051L21.627 24.6562C21.9224 24.8598 22.3965 25.0397 22.9346 24.9551C23.5199 24.8629 24.0826 24.4747 24.5186 23.6963C24.8695 23.0698 25.1914 22.7566 25.417 22.6084C25.5632 22.5124 25.6567 22.4914 25.6943 22.4863L29.8574 24.583C29.9191 25.6685 29.499 26.8697 28.6006 27.6885C27.6524 28.5524 26.1093 29.0445 23.8818 28.4082C18.2088 26.7875 12.5996 21.8196 11.0391 14.8887C11.0553 12.462 12.1749 10.9338 13.7139 10.3926C13.8261 10.3667 14.0388 10.3398 14.292 10.335Z" fill="white" stroke="#292323"/>
</svg>
