<svg width="37" height="37" viewBox="0 0 37 37" fill="none" xmlns="http://www.w3.org/2000/svg">
<path d="M34.5537 0.5C34.9703 0.505993 35.388 0.59826 35.7363 0.850586C36.4612 1.37572 36.631 2.37571 36.4072 3.70703L36.4062 3.71191L30.876 34.8721C30.8662 34.9729 30.8391 35.1326 30.7783 35.3086C30.6969 35.5442 30.5414 35.855 30.2471 36.1035C29.6049 36.6456 28.5861 36.6859 27.0918 35.8877L27.0352 35.8574L26.9883 35.8135L19.7158 29.0781L15.4287 33.9775L15.3955 34.0156L15.3555 34.0459C14.873 34.4131 14.2563 34.5603 13.7051 34.3291C13.1381 34.0911 12.7989 33.5216 12.7402 32.7891L12.7373 32.752L12.7402 32.7148L13.2539 25.415L13.2656 25.2402L13.3848 25.1123L29.6357 7.44727L10.0566 21.791L9.84375 21.9473L9.59375 21.8584L1.82324 19.0898L1.69629 19.0439L1.61621 18.9502C1.61306 18.9473 1.60849 18.9428 1.60254 18.9375C1.57931 18.917 1.55183 18.8938 1.51074 18.8584C1.43305 18.7914 1.32821 18.6992 1.21777 18.5889C1.00391 18.3752 0.732483 18.0581 0.592773 17.6611C0.443193 17.236 0.45337 16.7394 0.77832 16.249C1.08304 15.7893 1.63695 15.3768 2.47559 15.001L33.1641 0.726562L33.2012 0.708984L33.2412 0.697266C33.6898 0.573428 34.1378 0.494083 34.5537 0.5Z" fill="white" stroke="#292323"/>
</svg>
