<svg width="42" height="25" viewBox="0 0 42 25" fill="none" xmlns="http://www.w3.org/2000/svg">
<path d="M2.16393 2.01095C-0.573024 2.01095 2.16393 5.69068 3.77622 9.133L4.40541 10.1617L6.33229 13.4854C7.06634 14.5932 8.56589 16.8406 8.69173 16.9673C8.81757 17.0939 9.92388 18.4708 10.4613 19.1434C13.5129 22.8153 18.4048 23.8519 21.2754 23.8519C24.8539 24.0102 24.2641 22.7836 24.4214 21.2405C25.0899 17.2838 27.0561 18.1147 29.2975 21.3988C31.5436 24.6896 33.3872 23.9706 38.7353 23.8519C44.1227 23.6541 38.211 18.2466 35.2748 15.5033C32.9153 13.4854 35.4714 12.8919 40.1116 5.21587C42.1565 2.05051 40.1903 2.05051 39.0106 2.05051H32.9153C31.8536 2.05051 31.7304 2.24835 31.3817 3.11882C29.7458 7.20213 27.8163 9.93753 27.0561 10.7948C23.5955 14.9889 24.2641 8.6582 24.4214 3.94973C24.5786 1.57571 23.3989 1.19641 22.0226 1.10091C21.2623 1.04815 19.3328 0.958467 17.6969 1.02177C15.6521 1.10091 14.9836 1.61528 14.4724 2.12965C14.0634 2.54115 14.4068 2.72315 14.6297 2.76272C16.6352 3.03969 16.6352 4.2267 16.7532 9.133C16.3599 16.6507 11.877 8.43399 9.71416 3.67276C9.24227 2.09008 8.21984 2.01095 7.62998 2.01095H2.16393Z" fill="white" stroke="#292323"/>
</svg>
