<svg width="38" height="38" viewBox="0 0 38 38" fill="none" xmlns="http://www.w3.org/2000/svg">
<path d="M4.25265 27.5475L1 37L10.7275 33.9302C24.2732 40.2521 33.5569 30.3742 35.1072 26.271C39.4117 17.3474 35.472 10.1016 32.2194 6.78865C26.3828 -0.554474 17.0201 0.487983 12.2475 2.38156C1.52286 6.63668 -0.732719 20.3746 4.25265 27.5475Z" fill="white"/>
<path d="M4.25265 27.5475L1 37L10.7275 33.9302C24.2732 40.2521 33.5569 30.3742 35.1072 26.271C39.4117 17.3474 35.472 10.1016 32.2194 6.78865C26.3828 -0.554474 17.0201 0.487983 12.2475 2.38156C1.52286 6.63668 -0.732719 20.3746 4.25265 27.5475Z" fill="white"/>
<path d="M1 37L4.25265 27.5475C-0.732719 20.3746 1.52286 6.63668 12.2475 2.38156C17.0201 0.487983 26.3828 -0.554474 32.2194 6.78865C35.472 10.1016 39.4117 17.3474 35.1072 26.271C33.5569 30.3742 24.2732 40.2521 10.7275 33.9302L1 37ZM5.62058 32.5017L7.4445 27.0005C5.12407 24.0016 2.03355 16.1681 8.23486 8.82503C14.4362 1.48191 23.2214 3.59731 26.8388 5.5729C32.7057 9.09857 35.9158 16.2472 33.3137 22.8365C31.6722 27.5475 28.2736 32.5625 20.1511 33.0488C16.2905 33.0488 14.0653 33.0123 11.1227 30.7997L5.62058 32.5017ZM28.2979 22.8365C28.6019 25.1768 26.626 28.2162 22.3702 27.0005C17.1113 25.4981 11.9131 20.8913 10.4844 14.4479C10.4844 12.0772 11.5909 10.4784 13.2202 9.9192C13.504 9.84828 14.162 9.80901 14.6186 9.9192C15.5001 10.132 16.1993 12.8066 16.5945 14.5998C16.7465 14.9949 15.9743 15.9372 15.4393 16.3019C14.953 16.7578 14.9286 16.928 15.1961 17.4872C15.5812 18.3788 17.2207 20.6907 20.6983 22.8061C21.0732 23.0797 21.9933 23.3228 22.6742 22.1071C23.3551 20.8913 24.0117 20.7292 24.2549 20.8001L28.2979 22.8365Z" stroke="#292323"/>
</svg>
